%TF.GenerationSoftware,KiCad,Pcbnew,8.0.8*%
%TF.CreationDate,2025-02-20T15:14:10+05:30*%
%TF.ProjectId,Testing_1,54657374-696e-4675-9f31-2e6b69636164,rev?*%
%TF.SameCoordinates,Original*%
%TF.FileFunction,Copper,L1,Top*%
%TF.FilePolarity,Positive*%
%FSLAX46Y46*%
G04 Gerber Fmt 4.6, Leading zero omitted, Abs format (unit mm)*
G04 Created by KiCad (PCBNEW 8.0.8) date 2025-02-20 15:14:10*
%MOMM*%
%LPD*%
G01*
G04 APERTURE LIST*
G04 Aperture macros list*
%AMRoundRect*
0 Rectangle with rounded corners*
0 $1 Rounding radius*
0 $2 $3 $4 $5 $6 $7 $8 $9 X,Y pos of 4 corners*
0 Add a 4 corners polygon primitive as box body*
4,1,4,$2,$3,$4,$5,$6,$7,$8,$9,$2,$3,0*
0 Add four circle primitives for the rounded corners*
1,1,$1+$1,$2,$3*
1,1,$1+$1,$4,$5*
1,1,$1+$1,$6,$7*
1,1,$1+$1,$8,$9*
0 Add four rect primitives between the rounded corners*
20,1,$1+$1,$2,$3,$4,$5,0*
20,1,$1+$1,$4,$5,$6,$7,0*
20,1,$1+$1,$6,$7,$8,$9,0*
20,1,$1+$1,$8,$9,$2,$3,0*%
G04 Aperture macros list end*
%TA.AperFunction,SMDPad,CuDef*%
%ADD10R,0.800000X1.000000*%
%TD*%
%TA.AperFunction,SMDPad,CuDef*%
%ADD11R,1.500000X0.700000*%
%TD*%
%TA.AperFunction,SMDPad,CuDef*%
%ADD12R,1.200000X1.400000*%
%TD*%
%TA.AperFunction,SMDPad,CuDef*%
%ADD13RoundRect,0.375000X-0.375000X0.625000X-0.375000X-0.625000X0.375000X-0.625000X0.375000X0.625000X0*%
%TD*%
%TA.AperFunction,SMDPad,CuDef*%
%ADD14RoundRect,0.500000X-1.400000X0.500000X-1.400000X-0.500000X1.400000X-0.500000X1.400000X0.500000X0*%
%TD*%
%TA.AperFunction,SMDPad,CuDef*%
%ADD15RoundRect,0.075000X-0.662500X-0.075000X0.662500X-0.075000X0.662500X0.075000X-0.662500X0.075000X0*%
%TD*%
%TA.AperFunction,SMDPad,CuDef*%
%ADD16RoundRect,0.075000X-0.075000X-0.662500X0.075000X-0.662500X0.075000X0.662500X-0.075000X0.662500X0*%
%TD*%
%TA.AperFunction,SMDPad,CuDef*%
%ADD17RoundRect,0.135000X-0.135000X-0.185000X0.135000X-0.185000X0.135000X0.185000X-0.135000X0.185000X0*%
%TD*%
%TA.AperFunction,SMDPad,CuDef*%
%ADD18RoundRect,0.135000X0.135000X0.185000X-0.135000X0.185000X-0.135000X-0.185000X0.135000X-0.185000X0*%
%TD*%
%TA.AperFunction,SMDPad,CuDef*%
%ADD19RoundRect,0.135000X-0.185000X0.135000X-0.185000X-0.135000X0.185000X-0.135000X0.185000X0.135000X0*%
%TD*%
%TA.AperFunction,SMDPad,CuDef*%
%ADD20RoundRect,0.135000X0.185000X-0.135000X0.185000X0.135000X-0.185000X0.135000X-0.185000X-0.135000X0*%
%TD*%
%TA.AperFunction,ComponentPad*%
%ADD21R,1.700000X1.700000*%
%TD*%
%TA.AperFunction,ComponentPad*%
%ADD22O,1.700000X1.700000*%
%TD*%
%TA.AperFunction,SMDPad,CuDef*%
%ADD23RoundRect,0.218750X-0.256250X0.218750X-0.256250X-0.218750X0.256250X-0.218750X0.256250X0.218750X0*%
%TD*%
%TA.AperFunction,SMDPad,CuDef*%
%ADD24RoundRect,0.250000X0.475000X-0.250000X0.475000X0.250000X-0.475000X0.250000X-0.475000X-0.250000X0*%
%TD*%
%TA.AperFunction,SMDPad,CuDef*%
%ADD25RoundRect,0.250000X-0.250000X-0.475000X0.250000X-0.475000X0.250000X0.475000X-0.250000X0.475000X0*%
%TD*%
%TA.AperFunction,SMDPad,CuDef*%
%ADD26RoundRect,0.140000X0.170000X-0.140000X0.170000X0.140000X-0.170000X0.140000X-0.170000X-0.140000X0*%
%TD*%
%TA.AperFunction,SMDPad,CuDef*%
%ADD27RoundRect,0.140000X-0.140000X-0.170000X0.140000X-0.170000X0.140000X0.170000X-0.140000X0.170000X0*%
%TD*%
%TA.AperFunction,SMDPad,CuDef*%
%ADD28RoundRect,0.140000X0.140000X0.170000X-0.140000X0.170000X-0.140000X-0.170000X0.140000X-0.170000X0*%
%TD*%
%TA.AperFunction,SMDPad,CuDef*%
%ADD29RoundRect,0.225000X-0.225000X-0.250000X0.225000X-0.250000X0.225000X0.250000X-0.225000X0.250000X0*%
%TD*%
%TA.AperFunction,SMDPad,CuDef*%
%ADD30RoundRect,0.140000X-0.170000X0.140000X-0.170000X-0.140000X0.170000X-0.140000X0.170000X0.140000X0*%
%TD*%
%TA.AperFunction,HeatsinkPad*%
%ADD31O,1.800000X1.150000*%
%TD*%
%TA.AperFunction,HeatsinkPad*%
%ADD32O,2.000000X1.450000*%
%TD*%
%TA.AperFunction,SMDPad,CuDef*%
%ADD33R,1.300000X0.450000*%
%TD*%
%TA.AperFunction,ViaPad*%
%ADD34C,0.700000*%
%TD*%
%TA.AperFunction,Conductor*%
%ADD35C,0.300000*%
%TD*%
%TA.AperFunction,Conductor*%
%ADD36C,0.500000*%
%TD*%
%TA.AperFunction,Conductor*%
%ADD37C,0.200000*%
%TD*%
G04 APERTURE END LIST*
D10*
%TO.P,SW1,*%
%TO.N,*%
X108730000Y-73120000D03*
X106520000Y-73120000D03*
X108730000Y-80420000D03*
X106520000Y-80420000D03*
D11*
%TO.P,SW1,1,A*%
%TO.N,GND*%
X109380000Y-74520000D03*
%TO.P,SW1,2,B*%
%TO.N,/SW_BOOT0*%
X109380000Y-77520000D03*
%TO.P,SW1,3,C*%
%TO.N,+3.3V*%
X109380000Y-79020000D03*
%TD*%
D12*
%TO.P,Y1,1,1*%
%TO.N,/HSE_IN*%
X112590000Y-80380000D03*
%TO.P,Y1,2,2*%
%TO.N,GND*%
X112590000Y-82580000D03*
%TO.P,Y1,3,3*%
%TO.N,/HSE_OUT*%
X114290000Y-82580000D03*
%TO.P,Y1,4,4*%
%TO.N,GND*%
X114290000Y-80380000D03*
%TD*%
D13*
%TO.P,U2,1,GND*%
%TO.N,GND*%
X137920000Y-87240000D03*
%TO.P,U2,2,VO*%
%TO.N,+3.3V*%
X135620000Y-87240000D03*
D14*
X135620000Y-93540000D03*
D13*
%TO.P,U2,3,VI*%
%TO.N,VBUS*%
X133320000Y-87240000D03*
%TD*%
D15*
%TO.P,U1,1,VBAT*%
%TO.N,+3.3V*%
X120837500Y-78750000D03*
%TO.P,U1,2,PC13*%
%TO.N,unconnected-(U1-PC13-Pad2)*%
X120837500Y-79250000D03*
%TO.P,U1,3,PC14*%
%TO.N,unconnected-(U1-PC14-Pad3)*%
X120837500Y-79750000D03*
%TO.P,U1,4,PC15*%
%TO.N,unconnected-(U1-PC15-Pad4)*%
X120837500Y-80250000D03*
%TO.P,U1,5,PD0*%
%TO.N,/HSE_IN*%
X120837500Y-80750000D03*
%TO.P,U1,6,PD1*%
%TO.N,/HSE_OUT*%
X120837500Y-81250000D03*
%TO.P,U1,7,NRST*%
%TO.N,/NRST*%
X120837500Y-81750000D03*
%TO.P,U1,8,VSSA*%
%TO.N,GND*%
X120837500Y-82250000D03*
%TO.P,U1,9,VDDA*%
%TO.N,+3.3VA*%
X120837500Y-82750000D03*
%TO.P,U1,10,PA0*%
%TO.N,unconnected-(U1-PA0-Pad10)*%
X120837500Y-83250000D03*
%TO.P,U1,11,PA1*%
%TO.N,unconnected-(U1-PA1-Pad11)*%
X120837500Y-83750000D03*
%TO.P,U1,12,PA2*%
%TO.N,unconnected-(U1-PA2-Pad12)*%
X120837500Y-84250000D03*
D16*
%TO.P,U1,13,PA3*%
%TO.N,unconnected-(U1-PA3-Pad13)*%
X122250000Y-85662500D03*
%TO.P,U1,14,PA4*%
%TO.N,unconnected-(U1-PA4-Pad14)*%
X122750000Y-85662500D03*
%TO.P,U1,15,PA5*%
%TO.N,unconnected-(U1-PA5-Pad15)*%
X123250000Y-85662500D03*
%TO.P,U1,16,PA6*%
%TO.N,unconnected-(U1-PA6-Pad16)*%
X123750000Y-85662500D03*
%TO.P,U1,17,PA7*%
%TO.N,unconnected-(U1-PA7-Pad17)*%
X124250000Y-85662500D03*
%TO.P,U1,18,PB0*%
%TO.N,unconnected-(U1-PB0-Pad18)*%
X124750000Y-85662500D03*
%TO.P,U1,19,PB1*%
%TO.N,unconnected-(U1-PB1-Pad19)*%
X125250000Y-85662500D03*
%TO.P,U1,20,PB2*%
%TO.N,unconnected-(U1-PB2-Pad20)*%
X125750000Y-85662500D03*
%TO.P,U1,21,PB10*%
%TO.N,/I2C2_SCL*%
X126250000Y-85662500D03*
%TO.P,U1,22,PB11*%
%TO.N,/I2C2_SDA*%
X126750000Y-85662500D03*
%TO.P,U1,23,VSS*%
%TO.N,GND*%
X127250000Y-85662500D03*
%TO.P,U1,24,VDD*%
%TO.N,+3.3V*%
X127750000Y-85662500D03*
D15*
%TO.P,U1,25,PB12*%
%TO.N,unconnected-(U1-PB12-Pad25)*%
X129162500Y-84250000D03*
%TO.P,U1,26,PB13*%
%TO.N,unconnected-(U1-PB13-Pad26)*%
X129162500Y-83750000D03*
%TO.P,U1,27,PB14*%
%TO.N,unconnected-(U1-PB14-Pad27)*%
X129162500Y-83250000D03*
%TO.P,U1,28,PB15*%
%TO.N,unconnected-(U1-PB15-Pad28)*%
X129162500Y-82750000D03*
%TO.P,U1,29,PA8*%
%TO.N,unconnected-(U1-PA8-Pad29)*%
X129162500Y-82250000D03*
%TO.P,U1,30,PA9*%
%TO.N,unconnected-(U1-PA9-Pad30)*%
X129162500Y-81750000D03*
%TO.P,U1,31,PA10*%
%TO.N,unconnected-(U1-PA10-Pad31)*%
X129162500Y-81250000D03*
%TO.P,U1,32,PA11*%
%TO.N,/USB_D-*%
X129162500Y-80750000D03*
%TO.P,U1,33,PA12*%
%TO.N,/USB_D+*%
X129162500Y-80250000D03*
%TO.P,U1,34,PA13*%
%TO.N,/SWDIO*%
X129162500Y-79750000D03*
%TO.P,U1,35,VSS*%
%TO.N,GND*%
X129162500Y-79250000D03*
%TO.P,U1,36,VDD*%
%TO.N,+3.3V*%
X129162500Y-78750000D03*
D16*
%TO.P,U1,37,PA14*%
%TO.N,/SWCLK*%
X127750000Y-77337500D03*
%TO.P,U1,38,PA15*%
%TO.N,unconnected-(U1-PA15-Pad38)*%
X127250000Y-77337500D03*
%TO.P,U1,39,PB3*%
%TO.N,unconnected-(U1-PB3-Pad39)*%
X126750000Y-77337500D03*
%TO.P,U1,40,PB4*%
%TO.N,unconnected-(U1-PB4-Pad40)*%
X126250000Y-77337500D03*
%TO.P,U1,41,PB5*%
%TO.N,unconnected-(U1-PB5-Pad41)*%
X125750000Y-77337500D03*
%TO.P,U1,42,PB6*%
%TO.N,/USART1_Tx*%
X125250000Y-77337500D03*
%TO.P,U1,43,PB7*%
%TO.N,/USART1_Rx*%
X124750000Y-77337500D03*
%TO.P,U1,44,BOOT0*%
%TO.N,/BOOT0*%
X124250000Y-77337500D03*
%TO.P,U1,45,PB8*%
%TO.N,unconnected-(U1-PB8-Pad45)*%
X123750000Y-77337500D03*
%TO.P,U1,46,PB9*%
%TO.N,unconnected-(U1-PB9-Pad46)*%
X123250000Y-77337500D03*
%TO.P,U1,47,VSS*%
%TO.N,GND*%
X122750000Y-77337500D03*
%TO.P,U1,48,VDD*%
%TO.N,+3.3V*%
X122250000Y-77337500D03*
%TD*%
D17*
%TO.P,R6,1*%
%TO.N,+3.3V*%
X125300000Y-89680000D03*
%TO.P,R6,2*%
%TO.N,/I2C2_SDA*%
X126320000Y-89680000D03*
%TD*%
D18*
%TO.P,R5,1*%
%TO.N,+3.3V*%
X123640000Y-89660000D03*
%TO.P,R5,2*%
%TO.N,/I2C2_SCL*%
X122620000Y-89660000D03*
%TD*%
D17*
%TO.P,R3,1*%
%TO.N,/PWR_LED_K*%
X143310000Y-87080000D03*
%TO.P,R3,2*%
%TO.N,GND*%
X144330000Y-87080000D03*
%TD*%
D19*
%TO.P,R2,1*%
%TO.N,+3.3V*%
X134920000Y-79150000D03*
%TO.P,R2,2*%
%TO.N,/USB_D+*%
X134920000Y-80170000D03*
%TD*%
D20*
%TO.P,R1,1*%
%TO.N,/SW_BOOT0*%
X111530000Y-77510000D03*
%TO.P,R1,2*%
%TO.N,/BOOT0*%
X111530000Y-76490000D03*
%TD*%
D21*
%TO.P,J4,1,Pin_1*%
%TO.N,+3.3V*%
X120020000Y-93870000D03*
D22*
%TO.P,J4,2,Pin_2*%
%TO.N,/I2C2_SCL*%
X122560000Y-93870000D03*
%TO.P,J4,3,Pin_3*%
%TO.N,/I2C2_SDA*%
X125100000Y-93870000D03*
%TO.P,J4,4,Pin_4*%
%TO.N,GND*%
X127640000Y-93870000D03*
%TD*%
D21*
%TO.P,J3,1,Pin_1*%
%TO.N,+3.3V*%
X123640000Y-69020000D03*
D22*
%TO.P,J3,2,Pin_2*%
%TO.N,/USART1_Tx*%
X121100000Y-69020000D03*
%TO.P,J3,3,Pin_3*%
%TO.N,/USART1_Rx*%
X118560000Y-69020000D03*
%TO.P,J3,4,Pin_4*%
%TO.N,GND*%
X116020000Y-69020000D03*
%TD*%
D21*
%TO.P,J2,1,Pin_1*%
%TO.N,+3.3V*%
X137040000Y-69020000D03*
D22*
%TO.P,J2,2,Pin_2*%
%TO.N,/SWDIO*%
X134500000Y-69020000D03*
%TO.P,J2,3,Pin_3*%
%TO.N,/SWCLK*%
X131960000Y-69020000D03*
%TO.P,J2,4,Pin_4*%
%TO.N,GND*%
X129420000Y-69020000D03*
%TD*%
D23*
%TO.P,FB1,1*%
%TO.N,+3.3VA*%
X119410000Y-86552500D03*
%TO.P,FB1,2*%
%TO.N,+3.3V*%
X119410000Y-88127500D03*
%TD*%
%TO.P,D1,1,K*%
%TO.N,/PWR_LED_K*%
X143330000Y-88822500D03*
%TO.P,D1,2,A*%
%TO.N,+3.3V*%
X143330000Y-90397500D03*
%TD*%
D24*
%TO.P,C13,1*%
%TO.N,+3.3V*%
X140590000Y-90910000D03*
%TO.P,C13,2*%
%TO.N,GND*%
X140590000Y-89010000D03*
%TD*%
D25*
%TO.P,C12,1*%
%TO.N,VBUS*%
X134400000Y-84740000D03*
%TO.P,C12,2*%
%TO.N,GND*%
X136300000Y-84740000D03*
%TD*%
D26*
%TO.P,C11,1*%
%TO.N,/HSE_OUT*%
X116500000Y-83020000D03*
%TO.P,C11,2*%
%TO.N,GND*%
X116500000Y-82060000D03*
%TD*%
%TO.P,C10,1*%
%TO.N,/HSE_IN*%
X116500000Y-81000000D03*
%TO.P,C10,2*%
%TO.N,GND*%
X116500000Y-80040000D03*
%TD*%
D27*
%TO.P,C9,1*%
%TO.N,/NRST*%
X122320000Y-87370000D03*
%TO.P,C9,2*%
%TO.N,GND*%
X123280000Y-87370000D03*
%TD*%
D28*
%TO.P,C8,1*%
%TO.N,+3.3V*%
X117710000Y-88340000D03*
%TO.P,C8,2*%
%TO.N,GND*%
X116750000Y-88340000D03*
%TD*%
%TO.P,C7,1*%
%TO.N,+3.3VA*%
X117740000Y-86370000D03*
%TO.P,C7,2*%
%TO.N,GND*%
X116780000Y-86370000D03*
%TD*%
D26*
%TO.P,C6,1*%
%TO.N,+3.3VA*%
X118500000Y-82960000D03*
%TO.P,C6,2*%
%TO.N,GND*%
X118500000Y-82000000D03*
%TD*%
D29*
%TO.P,C5,1*%
%TO.N,+3.3V*%
X121575000Y-73840000D03*
%TO.P,C5,2*%
%TO.N,GND*%
X123125000Y-73840000D03*
%TD*%
D26*
%TO.P,C4,1*%
%TO.N,+3.3V*%
X118960000Y-78760000D03*
%TO.P,C4,2*%
%TO.N,GND*%
X118960000Y-77800000D03*
%TD*%
D28*
%TO.P,C3,1*%
%TO.N,+3.3V*%
X128220000Y-87680000D03*
%TO.P,C3,2*%
%TO.N,GND*%
X127260000Y-87680000D03*
%TD*%
D30*
%TO.P,C2,2*%
%TO.N,GND*%
X131320000Y-79550000D03*
%TO.P,C2,1*%
%TO.N,+3.3V*%
X131320000Y-78590000D03*
%TD*%
D31*
%TO.P,J1,6,Shield*%
%TO.N,unconnected-(J1-Shield-Pad6)_3*%
X144210000Y-76225000D03*
D32*
%TO.N,unconnected-(J1-Shield-Pad6)_1*%
X140410000Y-76375000D03*
%TO.N,unconnected-(J1-Shield-Pad6)*%
X140410000Y-83825000D03*
D31*
%TO.N,unconnected-(J1-Shield-Pad6)_2*%
X144210000Y-83975000D03*
D33*
%TO.P,J1,5,GND*%
%TO.N,GND*%
X140360000Y-78800000D03*
%TO.P,J1,4,ID*%
%TO.N,unconnected-(J1-ID-Pad4)*%
X140360000Y-79450000D03*
%TO.P,J1,3,D+*%
%TO.N,/USB_D+*%
X140360000Y-80100000D03*
%TO.P,J1,2,D-*%
%TO.N,/USB_D-*%
X140360000Y-80750000D03*
%TO.P,J1,1,VBUS*%
%TO.N,VBUS*%
X140360000Y-81400000D03*
%TD*%
D27*
%TO.P,C1,2*%
%TO.N,GND*%
X122910000Y-75590000D03*
%TO.P,C1,1*%
%TO.N,+3.3V*%
X121950000Y-75590000D03*
%TD*%
D34*
%TO.N,GND*%
X112560000Y-84170000D03*
X114320000Y-78760000D03*
%TO.N,+3.3V*%
X144626570Y-87931280D03*
X144330000Y-86200000D03*
X121880000Y-91330000D03*
X123320000Y-91260000D03*
X125360000Y-90740000D03*
X127030000Y-90680000D03*
%TO.N,GND*%
X137182000Y-88732150D03*
X141890000Y-88770000D03*
X138080141Y-88790000D03*
X137561999Y-85389923D03*
X137550000Y-84490000D03*
X138940000Y-78770000D03*
X132300000Y-79530000D03*
X109890000Y-73550000D03*
X122750000Y-78690000D03*
X118960000Y-76840000D03*
X115603105Y-82134527D03*
X116800000Y-85340000D03*
X116750000Y-89410000D03*
X122210000Y-82440000D03*
X123273796Y-88280000D03*
X127240000Y-84160000D03*
X116510000Y-79140000D03*
X145200000Y-87060000D03*
%TD*%
D35*
%TO.N,/I2C2_SCL*%
X122620000Y-89660000D02*
X122620000Y-93810000D01*
X122620000Y-93810000D02*
X122560000Y-93870000D01*
D36*
%TO.N,+3.3VA*%
X117740000Y-86370000D02*
X117740000Y-84880000D01*
X117740000Y-84880000D02*
X118490000Y-84130000D01*
X118490000Y-84130000D02*
X118490000Y-82970000D01*
X118490000Y-82970000D02*
X118500000Y-82960000D01*
%TO.N,GND*%
X112590000Y-84140000D02*
X112560000Y-84170000D01*
X112590000Y-82580000D02*
X112590000Y-84140000D01*
X114290000Y-78790000D02*
X114320000Y-78760000D01*
X114290000Y-80380000D02*
X114290000Y-78790000D01*
%TO.N,+3.3V*%
X142010000Y-90910000D02*
X142010000Y-92530000D01*
X142010000Y-92530000D02*
X138670000Y-95870000D01*
X138670000Y-95870000D02*
X131460000Y-95870000D01*
X131460000Y-95870000D02*
X129830000Y-94240000D01*
X129830000Y-94240000D02*
X129830000Y-90680000D01*
D35*
X132690000Y-78590000D02*
X132740000Y-78540000D01*
X131320000Y-78590000D02*
X132690000Y-78590000D01*
X132740000Y-78540000D02*
X133350000Y-79150000D01*
X133350000Y-79150000D02*
X134920000Y-79150000D01*
D36*
X144330000Y-86200000D02*
X144240000Y-86200000D01*
X144240000Y-86200000D02*
X142710000Y-84670000D01*
X142710000Y-84670000D02*
X142710000Y-74680000D01*
X137050000Y-69020000D02*
X137040000Y-69020000D01*
X144626570Y-90013430D02*
X144626570Y-87931280D01*
X144390000Y-90250000D02*
X144626570Y-90013430D01*
X144242500Y-90397500D02*
X144390000Y-90250000D01*
X143330000Y-90397500D02*
X144242500Y-90397500D01*
%TO.N,/PWR_LED_K*%
X143310000Y-87080000D02*
X143310000Y-88802500D01*
X143310000Y-88802500D02*
X143330000Y-88822500D01*
%TO.N,+3.3V*%
X137040000Y-69020000D02*
X137040000Y-68850000D01*
X137040000Y-68850000D02*
X135340000Y-67150000D01*
X125510000Y-67150000D02*
X123640000Y-69020000D01*
X135340000Y-67150000D02*
X125510000Y-67150000D01*
X109380000Y-79020000D02*
X111410000Y-79020000D01*
X111410000Y-79020000D02*
X116590000Y-73840000D01*
X116590000Y-73840000D02*
X120260000Y-73840000D01*
D35*
X120837500Y-78750000D02*
X120837500Y-76917500D01*
X120220000Y-76300000D02*
X120220000Y-73880000D01*
X120220000Y-73880000D02*
X120260000Y-73840000D01*
X120837500Y-76917500D02*
X120220000Y-76300000D01*
D36*
X120260000Y-73840000D02*
X121575000Y-73840000D01*
%TO.N,+3.3VA*%
X117740000Y-86370000D02*
X119227500Y-86370000D01*
X119227500Y-86370000D02*
X119410000Y-86552500D01*
%TO.N,+3.3V*%
X117710000Y-88340000D02*
X119197500Y-88340000D01*
X119197500Y-88340000D02*
X119410000Y-88127500D01*
X121880000Y-91330000D02*
X119990000Y-91330000D01*
X119990000Y-91330000D02*
X119430000Y-91330000D01*
X120020000Y-93870000D02*
X120020000Y-91360000D01*
X120020000Y-91360000D02*
X119990000Y-91330000D01*
X119430000Y-91330000D02*
X114560000Y-91330000D01*
X119410000Y-88127500D02*
X119410000Y-91310000D01*
X119410000Y-91310000D02*
X119430000Y-91330000D01*
X114560000Y-91330000D02*
X109580000Y-86350000D01*
X109580000Y-86350000D02*
X109580000Y-79220000D01*
X109580000Y-79220000D02*
X109380000Y-79020000D01*
X123640000Y-90940000D02*
X123320000Y-91260000D01*
X123640000Y-89660000D02*
X123640000Y-90940000D01*
X123640000Y-89660000D02*
X125280000Y-89660000D01*
X125280000Y-89660000D02*
X125300000Y-89680000D01*
X125300000Y-89680000D02*
X125300000Y-90680000D01*
X125300000Y-90680000D02*
X125360000Y-90740000D01*
X129830000Y-90680000D02*
X129830000Y-89290000D01*
X129830000Y-90680000D02*
X127030000Y-90680000D01*
X142010000Y-90910000D02*
X142817500Y-90910000D01*
X140590000Y-90910000D02*
X142010000Y-90910000D01*
X142817500Y-90910000D02*
X143330000Y-90397500D01*
D35*
%TO.N,GND*%
X137230000Y-88710000D02*
X137204150Y-88710000D01*
X137204150Y-88710000D02*
X137182000Y-88732150D01*
X141880000Y-88760000D02*
X141890000Y-88770000D01*
X141770000Y-88760000D02*
X141880000Y-88760000D01*
X137560000Y-85387924D02*
X137561999Y-85389923D01*
X137560000Y-85240000D02*
X137560000Y-85387924D01*
X138970000Y-78800000D02*
X138940000Y-78770000D01*
X140360000Y-78800000D02*
X138970000Y-78800000D01*
X132280000Y-79550000D02*
X132300000Y-79530000D01*
X131320000Y-79550000D02*
X132280000Y-79550000D01*
X109380000Y-74060000D02*
X109890000Y-73550000D01*
X109380000Y-74520000D02*
X109380000Y-74060000D01*
X122750000Y-77337500D02*
X122750000Y-78690000D01*
X118960000Y-77800000D02*
X118960000Y-76840000D01*
X115677632Y-82060000D02*
X115603105Y-82134527D01*
X116500000Y-82060000D02*
X115677632Y-82060000D01*
X116780000Y-85360000D02*
X116800000Y-85340000D01*
X116780000Y-86370000D02*
X116780000Y-85360000D01*
X116750000Y-88340000D02*
X116750000Y-89410000D01*
%TO.N,/NRST*%
X122320000Y-87370000D02*
X121780000Y-87370000D01*
X121200000Y-86790000D02*
X121200000Y-85350000D01*
X122499950Y-81740000D02*
X121688120Y-81740000D01*
X121780000Y-87370000D02*
X121200000Y-86790000D01*
X121200000Y-85350000D02*
X122910000Y-83640000D01*
X122910000Y-83640000D02*
X122910000Y-82150050D01*
X121678120Y-81750000D02*
X120837500Y-81750000D01*
X122910000Y-82150050D02*
X122499950Y-81740000D01*
X121688120Y-81740000D02*
X121678120Y-81750000D01*
%TO.N,GND*%
X122020000Y-82250000D02*
X122210000Y-82440000D01*
X120837500Y-82250000D02*
X122020000Y-82250000D01*
%TO.N,/I2C2_SCL*%
X122620000Y-89660000D02*
X122620000Y-89260000D01*
X122620000Y-89260000D02*
X122900000Y-88980000D01*
X122900000Y-88980000D02*
X123960000Y-88980000D01*
X126250000Y-86690000D02*
X126250000Y-85662500D01*
X123960000Y-88980000D02*
X126250000Y-86690000D01*
D36*
%TO.N,GND*%
X123280000Y-88273796D02*
X123273796Y-88280000D01*
X123280000Y-87370000D02*
X123280000Y-88273796D01*
D35*
X127250000Y-84170000D02*
X127240000Y-84160000D01*
X127250000Y-85662500D02*
X127250000Y-84170000D01*
D36*
X116500000Y-79150000D02*
X116510000Y-79140000D01*
X116500000Y-80040000D02*
X116500000Y-79150000D01*
D35*
%TO.N,/I2C2_SDA*%
X126320000Y-90920000D02*
X125100000Y-92140000D01*
X126320000Y-89680000D02*
X126320000Y-90920000D01*
X125100000Y-92140000D02*
X125100000Y-93870000D01*
X126750000Y-85662500D02*
X126750000Y-86910000D01*
X126750000Y-86910000D02*
X126320000Y-87340000D01*
X126320000Y-87340000D02*
X126320000Y-89680000D01*
%TO.N,+3.3V*%
X127750000Y-86860000D02*
X128240000Y-87350000D01*
X128240000Y-87350000D02*
X128240000Y-87680000D01*
%TO.N,GND*%
X127250000Y-85662500D02*
X127250000Y-87650000D01*
X127250000Y-87650000D02*
X127280000Y-87680000D01*
%TO.N,/SW_BOOT0*%
X109380000Y-77520000D02*
X111520000Y-77520000D01*
X111520000Y-77520000D02*
X111530000Y-77510000D01*
%TO.N,/BOOT0*%
X124250000Y-77337500D02*
X124250000Y-72960000D01*
X124250000Y-72960000D02*
X123780000Y-72490000D01*
X123780000Y-72490000D02*
X112450000Y-72490000D01*
X112450000Y-72490000D02*
X111530000Y-73410000D01*
X111530000Y-73410000D02*
X111530000Y-76490000D01*
%TO.N,/USART1_Rx*%
X124750000Y-77337500D02*
X124750000Y-75122894D01*
X124750000Y-75122894D02*
X125290000Y-74582894D01*
X125290000Y-74582894D02*
X125290000Y-72367106D01*
X125290000Y-72367106D02*
X124706447Y-71783553D01*
X124706447Y-71783553D02*
X119803553Y-71783553D01*
X119803553Y-71783553D02*
X118560000Y-70540000D01*
X118560000Y-70540000D02*
X118560000Y-69020000D01*
%TO.N,/USART1_Tx*%
X125250000Y-75330000D02*
X125900000Y-74680000D01*
X125900000Y-74680000D02*
X125900000Y-72270000D01*
X121100000Y-70330000D02*
X121100000Y-69020000D01*
X125900000Y-72270000D02*
X124850000Y-71220000D01*
X125250000Y-77337500D02*
X125250000Y-75330000D01*
X124850000Y-71220000D02*
X121990000Y-71220000D01*
X121990000Y-71220000D02*
X121100000Y-70330000D01*
%TO.N,/SWDIO*%
X129162500Y-79750000D02*
X128321880Y-79750000D01*
X128321880Y-79750000D02*
X128064060Y-79492180D01*
X128064060Y-79492180D02*
X128064060Y-78364060D01*
X128064060Y-78364060D02*
X134500000Y-71928120D01*
X134500000Y-71928120D02*
X134500000Y-69020000D01*
%TO.N,/SWCLK*%
X127750000Y-77337500D02*
X127750000Y-76370000D01*
X127750000Y-76370000D02*
X131960000Y-72160000D01*
X131960000Y-72160000D02*
X131960000Y-69020000D01*
D37*
%TO.N,/USB_D+*%
X129162500Y-80250000D02*
X129212499Y-80299999D01*
X139410000Y-80299999D02*
X139410000Y-80225000D01*
X139410000Y-80225000D02*
X140235000Y-80225000D01*
X140235000Y-80225000D02*
X140360000Y-80100000D01*
D35*
%TO.N,/HSE_IN*%
X116500000Y-81000000D02*
X117270000Y-81000000D01*
X117270000Y-81000000D02*
X117520000Y-80750000D01*
X117520000Y-80750000D02*
X120837500Y-80750000D01*
%TO.N,/HSE_OUT*%
X116500000Y-83020000D02*
X114890000Y-83020000D01*
X114890000Y-83020000D02*
X114480000Y-82610000D01*
X117460000Y-82820000D02*
X117260000Y-83020000D01*
X117260000Y-83020000D02*
X116500000Y-83020000D01*
X117460000Y-81680000D02*
X117460000Y-82820000D01*
X120837500Y-81250000D02*
X117890000Y-81250000D01*
X117890000Y-81250000D02*
X117460000Y-81680000D01*
%TO.N,+3.3V*%
X118960000Y-78760000D02*
X118970000Y-78750000D01*
X118970000Y-78750000D02*
X120837500Y-78750000D01*
X127750000Y-85662500D02*
X127750000Y-86860000D01*
X129162500Y-78750000D02*
X130570000Y-78750000D01*
X130570000Y-78750000D02*
X130730000Y-78590000D01*
X130730000Y-78590000D02*
X131320000Y-78590000D01*
%TO.N,GND*%
X129162500Y-79250000D02*
X130560000Y-79250000D01*
X130560000Y-79250000D02*
X130860000Y-79550000D01*
X130860000Y-79550000D02*
X131320000Y-79550000D01*
%TO.N,+3.3VA*%
X118500000Y-82960000D02*
X119690000Y-82960000D01*
X119690000Y-82960000D02*
X119900000Y-82750000D01*
X119900000Y-82750000D02*
X120837500Y-82750000D01*
%TO.N,GND*%
X119670000Y-82000000D02*
X119920000Y-82250000D01*
X118500000Y-82000000D02*
X119670000Y-82000000D01*
X119920000Y-82250000D02*
X120837500Y-82250000D01*
X118500000Y-82000000D02*
X118500000Y-82010000D01*
X118500000Y-82010000D02*
X118510000Y-82020000D01*
X122910000Y-75590000D02*
X122910000Y-75190000D01*
X122910000Y-75190000D02*
X123125000Y-74975000D01*
X123125000Y-74975000D02*
X123125000Y-73840000D01*
%TO.N,+3.3V*%
X121950000Y-75590000D02*
X121950000Y-75250000D01*
X121950000Y-75250000D02*
X121575000Y-74875000D01*
X121575000Y-74875000D02*
X121575000Y-73840000D01*
%TO.N,GND*%
X122750000Y-76496880D02*
X122913440Y-76333440D01*
X122750000Y-77337500D02*
X122750000Y-76496880D01*
X122913440Y-76333440D02*
X122910000Y-76330000D01*
X122910000Y-76330000D02*
X122910000Y-75590000D01*
%TO.N,+3.3V*%
X122250000Y-77337500D02*
X122250000Y-76550000D01*
X122250000Y-76550000D02*
X121950000Y-76250000D01*
X121950000Y-76250000D02*
X121950000Y-75590000D01*
D37*
%TO.N,/USB_D+*%
X129212499Y-80299999D02*
X139410000Y-80299999D01*
%TO.N,/USB_D-*%
X129162500Y-80750000D02*
X140360000Y-80750000D01*
D35*
%TO.N,/HSE_IN*%
X113450000Y-81490000D02*
X112780000Y-80820000D01*
X112780000Y-80820000D02*
X112780000Y-80410000D01*
X115330000Y-81490000D02*
X113450000Y-81490000D01*
X115820000Y-81000000D02*
X115330000Y-81490000D01*
X116500000Y-81000000D02*
X115820000Y-81000000D01*
%TO.N,GND*%
X144330000Y-87080000D02*
X145180000Y-87080000D01*
X145180000Y-87080000D02*
X145200000Y-87060000D01*
D36*
%TO.N,+3.3V*%
X129830000Y-89290000D02*
X128220000Y-87680000D01*
D35*
X140480000Y-72460000D02*
X140480000Y-72450000D01*
X138040000Y-74900000D02*
X140480000Y-72460000D01*
X134920000Y-79150000D02*
X135630000Y-79150000D01*
X138040000Y-76740000D02*
X138040000Y-74900000D01*
D36*
X140480000Y-72450000D02*
X137050000Y-69020000D01*
D35*
X135630000Y-79150000D02*
X138040000Y-76740000D01*
D36*
X142710000Y-74680000D02*
X140480000Y-72450000D01*
%TD*%
%TA.AperFunction,Conductor*%
%TO.N,GND*%
G36*
X137729536Y-83759685D02*
G01*
X137745344Y-83771738D01*
X138158400Y-84142645D01*
X138195129Y-84202082D01*
X138199549Y-84235907D01*
X138189999Y-85419998D01*
X138190000Y-85419999D01*
X138190000Y-85420000D01*
X138613873Y-85653130D01*
X138759936Y-85733465D01*
X138807286Y-85779636D01*
X138983108Y-86081044D01*
X139000000Y-86143524D01*
X139000000Y-87700000D01*
X139560000Y-88100000D01*
X141761193Y-88100000D01*
X141828232Y-88119685D01*
X141831883Y-88122123D01*
X142236690Y-88403009D01*
X142280547Y-88457400D01*
X142290000Y-88504886D01*
X142290000Y-89219482D01*
X142270315Y-89286521D01*
X142242294Y-89317233D01*
X141914062Y-89573414D01*
X141849102Y-89599144D01*
X141836792Y-89599659D01*
X139387295Y-89580372D01*
X139320412Y-89560160D01*
X139304966Y-89548225D01*
X138910000Y-89190000D01*
X138868558Y-89189779D01*
X137086631Y-89180301D01*
X137019698Y-89160260D01*
X136993145Y-89137003D01*
X136922017Y-89054019D01*
X136893335Y-88990312D01*
X136892911Y-88986894D01*
X136891056Y-88969949D01*
X136883036Y-88929029D01*
X136868888Y-88879455D01*
X136849902Y-88829395D01*
X136842749Y-88800374D01*
X136836280Y-88747088D01*
X136836280Y-88717206D01*
X136842749Y-88663919D01*
X136849902Y-88634898D01*
X136855037Y-88621362D01*
X136870541Y-88564392D01*
X136878560Y-88517372D01*
X136879978Y-88497746D01*
X136882815Y-88458502D01*
X136882815Y-88458496D01*
X136870374Y-87953078D01*
X136836575Y-86579950D01*
X136834996Y-86555552D01*
X136834996Y-86555547D01*
X136832924Y-86535829D01*
X136832923Y-86535818D01*
X136801414Y-86429268D01*
X136801412Y-86429265D01*
X136801412Y-86429263D01*
X136799317Y-86424002D01*
X136801068Y-86423304D01*
X136790000Y-86377106D01*
X136790000Y-86220001D01*
X136789999Y-86219999D01*
X136715675Y-86110000D01*
X136540000Y-85850000D01*
X136539999Y-85849999D01*
X135619465Y-85812427D01*
X135553284Y-85790025D01*
X135524697Y-85762089D01*
X135444410Y-85653128D01*
X135420490Y-85587482D01*
X135420240Y-85578866D01*
X135429587Y-83980561D01*
X135449663Y-83913640D01*
X135490873Y-83874315D01*
X135690957Y-83757024D01*
X135753666Y-83740000D01*
X137662497Y-83740000D01*
X137729536Y-83759685D01*
G37*
%TD.AperFunction*%
%TD*%
%TA.AperFunction,Conductor*%
%TO.N,+3.3V*%
G36*
X136213527Y-86209685D02*
G01*
X136236709Y-86228934D01*
X136497427Y-86505453D01*
X136529095Y-86567734D01*
X136531168Y-86587468D01*
X136577408Y-88466012D01*
X136569389Y-88513032D01*
X136545763Y-88575330D01*
X136545762Y-88575335D01*
X136526722Y-88732149D01*
X136526722Y-88732150D01*
X136545763Y-88888968D01*
X136583240Y-88987787D01*
X136591260Y-89028707D01*
X136609999Y-89789999D01*
X136610000Y-89790000D01*
X137020000Y-90090000D01*
X137300000Y-90290000D01*
X141188027Y-90309786D01*
X141254964Y-90329811D01*
X141263197Y-90335652D01*
X141401821Y-90442771D01*
X141442831Y-90499336D01*
X141450000Y-90540888D01*
X141450000Y-91270031D01*
X141459429Y-92118648D01*
X141440491Y-92185902D01*
X141424098Y-92206716D01*
X141056480Y-92582690D01*
X140995537Y-92616862D01*
X140967819Y-92620000D01*
X138530000Y-92620000D01*
X138179999Y-93020000D01*
X138199276Y-94494662D01*
X138180470Y-94561953D01*
X138159294Y-94587491D01*
X137855978Y-94866861D01*
X137793332Y-94897799D01*
X137771085Y-94899650D01*
X133664919Y-94870320D01*
X133598022Y-94850157D01*
X133585708Y-94840983D01*
X133385985Y-94671987D01*
X133275027Y-94578100D01*
X133236566Y-94519771D01*
X133231149Y-94481027D01*
X133328925Y-89465134D01*
X133349912Y-89398492D01*
X133371662Y-89373871D01*
X134610000Y-88300000D01*
X134619725Y-86490967D01*
X134639769Y-86424039D01*
X134656037Y-86403962D01*
X134833681Y-86226319D01*
X134895004Y-86192834D01*
X134921362Y-86190000D01*
X136146488Y-86190000D01*
X136213527Y-86209685D01*
G37*
%TD.AperFunction*%
%TD*%
%TA.AperFunction,Conductor*%
%TO.N,VBUS*%
G36*
X139476206Y-81170185D02*
G01*
X139496848Y-81186819D01*
X139537235Y-81227206D01*
X139640009Y-81272585D01*
X139665135Y-81275500D01*
X141054864Y-81275499D01*
X141054879Y-81275497D01*
X141054882Y-81275497D01*
X141079987Y-81272586D01*
X141079987Y-81272585D01*
X141079991Y-81272585D01*
X141091421Y-81267537D01*
X141160698Y-81258465D01*
X141223884Y-81288287D01*
X141260916Y-81347535D01*
X141265466Y-81377709D01*
X141268419Y-81489941D01*
X141250505Y-81557476D01*
X141223844Y-81588463D01*
X141184182Y-81621514D01*
X141120079Y-81649309D01*
X141105505Y-81650252D01*
X135869999Y-81679999D01*
X135020000Y-82459999D01*
X135019999Y-82460000D01*
X135010177Y-85288890D01*
X134990260Y-85355860D01*
X134973859Y-85376140D01*
X134793153Y-85556846D01*
X134731830Y-85590331D01*
X134713207Y-85592923D01*
X134440000Y-85609999D01*
X134290000Y-85779999D01*
X134289999Y-85780002D01*
X134299955Y-86188159D01*
X134299990Y-86191846D01*
X134290243Y-88014506D01*
X134270200Y-88081439D01*
X134260393Y-88094541D01*
X134027116Y-88366698D01*
X133968542Y-88404788D01*
X133932968Y-88410000D01*
X132745068Y-88410000D01*
X132678029Y-88390315D01*
X132643029Y-88356456D01*
X132412548Y-88022656D01*
X132390655Y-87956305D01*
X132390601Y-87950321D01*
X132419110Y-86068708D01*
X132439808Y-86001977D01*
X132465979Y-85973487D01*
X133100000Y-85470000D01*
X133158085Y-83640296D01*
X133179887Y-83573918D01*
X133208621Y-83544293D01*
X134440000Y-82640000D01*
X134449535Y-81486238D01*
X134469773Y-81419365D01*
X134492618Y-81393301D01*
X134629421Y-81275499D01*
X134739699Y-81180537D01*
X134803344Y-81151708D01*
X134820612Y-81150500D01*
X139409167Y-81150500D01*
X139476206Y-81170185D01*
G37*
%TD.AperFunction*%
%TD*%
M02*
