M48
; DRILL file {KiCad 8.0.8} date 2025-02-20T15:13:54+0530
; FORMAT={-:-/ absolute / metric / decimal}
; #@! TF.CreationDate,2025-02-20T15:13:54+05:30
; #@! TF.GenerationSoftware,Kicad,Pcbnew,8.0.8
; #@! TF.FileFunction,MixedPlating,1,2
FMAT,2
METRIC
; #@! TA.AperFunction,Plated,PTH,ViaDrill
T1C0.300
; #@! TA.AperFunction,Plated,PTH,ComponentDrill
T2C0.550
; #@! TA.AperFunction,Plated,PTH,ComponentDrill
T3C0.850
; #@! TA.AperFunction,Plated,PTH,ComponentDrill
T4C1.000
; #@! TA.AperFunction,NonPlated,NPTH,ComponentDrill
T5C0.800
; #@! TA.AperFunction,NonPlated,NPTH,ComponentDrill
T6C0.900
; #@! TA.AperFunction,NonPlated,NPTH,ComponentDrill
T7C2.200
%
G90
G05
T1
X109.89Y-73.55
X112.56Y-84.17
X114.32Y-78.76
X115.603Y-82.135
X116.51Y-79.14
X116.75Y-89.41
X116.8Y-85.34
X118.96Y-76.84
X121.88Y-91.33
X122.21Y-82.44
X122.75Y-78.69
X123.274Y-88.28
X123.32Y-91.26
X125.36Y-90.74
X127.03Y-90.68
X127.24Y-84.16
X132.3Y-79.53
X137.182Y-88.732
X137.55Y-84.49
X137.562Y-85.39
X138.08Y-88.79
X138.94Y-78.77
X141.89Y-88.77
X144.33Y-86.2
X144.627Y-87.931
X145.2Y-87.06
T4
X116.02Y-69.02
X118.56Y-69.02
X120.02Y-93.87
X121.1Y-69.02
X122.56Y-93.87
X123.64Y-69.02
X125.1Y-93.87
X127.64Y-93.87
X129.42Y-69.02
X131.96Y-69.02
X134.5Y-69.02
X137.04Y-69.02
T5
X141.46Y-77.6
X141.46Y-82.6
T6
X107.62Y-75.27
X107.62Y-78.27
T7
X108.47Y-94.81
X108.51Y-69.36
X143.5Y-94.76
X143.54Y-69.3
T2
G00X143.885Y-76.225
M15
G01X144.535Y-76.225
M16
G05
G00X143.885Y-83.975
M15
G01X144.535Y-83.975
M16
G05
T3
G00X140.135Y-76.375
M15
G01X140.685Y-76.375
M16
G05
G00X140.135Y-83.825
M15
G01X140.685Y-83.825
M16
G05
M30
