%TF.GenerationSoftware,KiCad,Pcbnew,8.0.8*%
%TF.CreationDate,2025-02-20T15:14:10+05:30*%
%TF.ProjectId,Testing_1,54657374-696e-4675-9f31-2e6b69636164,rev?*%
%TF.SameCoordinates,Original*%
%TF.FileFunction,Soldermask,Top*%
%TF.FilePolarity,Negative*%
%FSLAX46Y46*%
G04 Gerber Fmt 4.6, Leading zero omitted, Abs format (unit mm)*
G04 Created by KiCad (PCBNEW 8.0.8) date 2025-02-20 15:14:10*
%MOMM*%
%LPD*%
G01*
G04 APERTURE LIST*
G04 Aperture macros list*
%AMRoundRect*
0 Rectangle with rounded corners*
0 $1 Rounding radius*
0 $2 $3 $4 $5 $6 $7 $8 $9 X,Y pos of 4 corners*
0 Add a 4 corners polygon primitive as box body*
4,1,4,$2,$3,$4,$5,$6,$7,$8,$9,$2,$3,0*
0 Add four circle primitives for the rounded corners*
1,1,$1+$1,$2,$3*
1,1,$1+$1,$4,$5*
1,1,$1+$1,$6,$7*
1,1,$1+$1,$8,$9*
0 Add four rect primitives between the rounded corners*
20,1,$1+$1,$2,$3,$4,$5,0*
20,1,$1+$1,$4,$5,$6,$7,0*
20,1,$1+$1,$6,$7,$8,$9,0*
20,1,$1+$1,$8,$9,$2,$3,0*%
G04 Aperture macros list end*
%ADD10R,0.800000X1.000000*%
%ADD11C,0.900000*%
%ADD12R,1.500000X0.700000*%
%ADD13C,2.200000*%
%ADD14R,1.200000X1.400000*%
%ADD15RoundRect,0.375000X-0.375000X0.625000X-0.375000X-0.625000X0.375000X-0.625000X0.375000X0.625000X0*%
%ADD16RoundRect,0.500000X-1.400000X0.500000X-1.400000X-0.500000X1.400000X-0.500000X1.400000X0.500000X0*%
%ADD17RoundRect,0.075000X-0.662500X-0.075000X0.662500X-0.075000X0.662500X0.075000X-0.662500X0.075000X0*%
%ADD18RoundRect,0.075000X-0.075000X-0.662500X0.075000X-0.662500X0.075000X0.662500X-0.075000X0.662500X0*%
%ADD19RoundRect,0.135000X-0.135000X-0.185000X0.135000X-0.185000X0.135000X0.185000X-0.135000X0.185000X0*%
%ADD20RoundRect,0.135000X0.135000X0.185000X-0.135000X0.185000X-0.135000X-0.185000X0.135000X-0.185000X0*%
%ADD21RoundRect,0.135000X-0.185000X0.135000X-0.185000X-0.135000X0.185000X-0.135000X0.185000X0.135000X0*%
%ADD22RoundRect,0.135000X0.185000X-0.135000X0.185000X0.135000X-0.185000X0.135000X-0.185000X-0.135000X0*%
%ADD23R,1.700000X1.700000*%
%ADD24O,1.700000X1.700000*%
%ADD25RoundRect,0.218750X-0.256250X0.218750X-0.256250X-0.218750X0.256250X-0.218750X0.256250X0.218750X0*%
%ADD26RoundRect,0.250000X0.475000X-0.250000X0.475000X0.250000X-0.475000X0.250000X-0.475000X-0.250000X0*%
%ADD27RoundRect,0.250000X-0.250000X-0.475000X0.250000X-0.475000X0.250000X0.475000X-0.250000X0.475000X0*%
%ADD28RoundRect,0.140000X0.170000X-0.140000X0.170000X0.140000X-0.170000X0.140000X-0.170000X-0.140000X0*%
%ADD29RoundRect,0.140000X-0.140000X-0.170000X0.140000X-0.170000X0.140000X0.170000X-0.140000X0.170000X0*%
%ADD30RoundRect,0.140000X0.140000X0.170000X-0.140000X0.170000X-0.140000X-0.170000X0.140000X-0.170000X0*%
%ADD31RoundRect,0.225000X-0.225000X-0.250000X0.225000X-0.250000X0.225000X0.250000X-0.225000X0.250000X0*%
%ADD32RoundRect,0.140000X-0.170000X0.140000X-0.170000X-0.140000X0.170000X-0.140000X0.170000X0.140000X0*%
%ADD33O,1.800000X1.150000*%
%ADD34O,2.000000X1.450000*%
%ADD35R,1.300000X0.450000*%
%ADD36O,0.800000X0.800000*%
G04 APERTURE END LIST*
D10*
%TO.C,SW1*%
X108730000Y-73120000D03*
X106520000Y-73120000D03*
D11*
X107620000Y-75270000D03*
X107620000Y-78270000D03*
D10*
X108730000Y-80420000D03*
X106520000Y-80420000D03*
D12*
X109380000Y-74520000D03*
X109380000Y-77520000D03*
X109380000Y-79020000D03*
%TD*%
D13*
%TO.C,H4*%
X108510000Y-69360000D03*
%TD*%
%TO.C,H3*%
X143540000Y-69300000D03*
%TD*%
%TO.C,H1*%
X108470000Y-94810000D03*
%TD*%
D14*
%TO.C,Y1*%
X112590000Y-80380000D03*
X112590000Y-82580000D03*
X114290000Y-82580000D03*
X114290000Y-80380000D03*
%TD*%
D15*
%TO.C,U2*%
X137920000Y-87240000D03*
X135620000Y-87240000D03*
D16*
X135620000Y-93540000D03*
D15*
X133320000Y-87240000D03*
%TD*%
D17*
%TO.C,U1*%
X120837500Y-78750000D03*
X120837500Y-79250000D03*
X120837500Y-79750000D03*
X120837500Y-80250000D03*
X120837500Y-80750000D03*
X120837500Y-81250000D03*
X120837500Y-81750000D03*
X120837500Y-82250000D03*
X120837500Y-82750000D03*
X120837500Y-83250000D03*
X120837500Y-83750000D03*
X120837500Y-84250000D03*
D18*
X122250000Y-85662500D03*
X122750000Y-85662500D03*
X123250000Y-85662500D03*
X123750000Y-85662500D03*
X124250000Y-85662500D03*
X124750000Y-85662500D03*
X125250000Y-85662500D03*
X125750000Y-85662500D03*
X126250000Y-85662500D03*
X126750000Y-85662500D03*
X127250000Y-85662500D03*
X127750000Y-85662500D03*
D17*
X129162500Y-84250000D03*
X129162500Y-83750000D03*
X129162500Y-83250000D03*
X129162500Y-82750000D03*
X129162500Y-82250000D03*
X129162500Y-81750000D03*
X129162500Y-81250000D03*
X129162500Y-80750000D03*
X129162500Y-80250000D03*
X129162500Y-79750000D03*
X129162500Y-79250000D03*
X129162500Y-78750000D03*
D18*
X127750000Y-77337500D03*
X127250000Y-77337500D03*
X126750000Y-77337500D03*
X126250000Y-77337500D03*
X125750000Y-77337500D03*
X125250000Y-77337500D03*
X124750000Y-77337500D03*
X124250000Y-77337500D03*
X123750000Y-77337500D03*
X123250000Y-77337500D03*
X122750000Y-77337500D03*
X122250000Y-77337500D03*
%TD*%
D19*
%TO.C,R6*%
X125300000Y-89680000D03*
X126320000Y-89680000D03*
%TD*%
D20*
%TO.C,R5*%
X123640000Y-89660000D03*
X122620000Y-89660000D03*
%TD*%
D19*
%TO.C,R3*%
X143310000Y-87080000D03*
X144330000Y-87080000D03*
%TD*%
D21*
%TO.C,R2*%
X134920000Y-79150000D03*
X134920000Y-80170000D03*
%TD*%
D22*
%TO.C,R1*%
X111530000Y-77510000D03*
X111530000Y-76490000D03*
%TD*%
D23*
%TO.C,J4*%
X120020000Y-93870000D03*
D24*
X122560000Y-93870000D03*
X125100000Y-93870000D03*
X127640000Y-93870000D03*
%TD*%
D23*
%TO.C,J3*%
X123640000Y-69020000D03*
D24*
X121100000Y-69020000D03*
X118560000Y-69020000D03*
X116020000Y-69020000D03*
%TD*%
D23*
%TO.C,J2*%
X137040000Y-69020000D03*
D24*
X134500000Y-69020000D03*
X131960000Y-69020000D03*
X129420000Y-69020000D03*
%TD*%
D25*
%TO.C,FB1*%
X119410000Y-86552500D03*
X119410000Y-88127500D03*
%TD*%
%TO.C,D1*%
X143330000Y-88822500D03*
X143330000Y-90397500D03*
%TD*%
D26*
%TO.C,C13*%
X140590000Y-90910000D03*
X140590000Y-89010000D03*
%TD*%
D27*
%TO.C,C12*%
X134400000Y-84740000D03*
X136300000Y-84740000D03*
%TD*%
D28*
%TO.C,C11*%
X116500000Y-83020000D03*
X116500000Y-82060000D03*
%TD*%
%TO.C,C10*%
X116500000Y-81000000D03*
X116500000Y-80040000D03*
%TD*%
D29*
%TO.C,C9*%
X122320000Y-87370000D03*
X123280000Y-87370000D03*
%TD*%
D30*
%TO.C,C8*%
X117710000Y-88340000D03*
X116750000Y-88340000D03*
%TD*%
%TO.C,C7*%
X117740000Y-86370000D03*
X116780000Y-86370000D03*
%TD*%
D28*
%TO.C,C6*%
X118500000Y-82960000D03*
X118500000Y-82000000D03*
%TD*%
D31*
%TO.C,C5*%
X121575000Y-73840000D03*
X123125000Y-73840000D03*
%TD*%
D28*
%TO.C,C4*%
X118960000Y-78760000D03*
X118960000Y-77800000D03*
%TD*%
D30*
%TO.C,C3*%
X128220000Y-87680000D03*
X127260000Y-87680000D03*
%TD*%
D32*
%TO.C,C2*%
X131320000Y-79550000D03*
X131320000Y-78590000D03*
%TD*%
D33*
%TO.C,J1*%
X144210000Y-76225000D03*
D34*
X140410000Y-76375000D03*
X140410000Y-83825000D03*
D33*
X144210000Y-83975000D03*
D35*
X140360000Y-78800000D03*
X140360000Y-79450000D03*
X140360000Y-80100000D03*
X140360000Y-80750000D03*
X140360000Y-81400000D03*
D36*
X141460000Y-77600000D03*
X141460000Y-82600000D03*
%TD*%
D13*
%TO.C,H2*%
X143500000Y-94760000D03*
%TD*%
D29*
%TO.C,C1*%
X122910000Y-75590000D03*
X121950000Y-75590000D03*
%TD*%
M02*
